<?xml version="1.0" standalone="no"?>
<!DOCTYPE svg PUBLIC "-//W3C//DTD SVG 20010904//EN"
 "http://www.w3.org/TR/2001/REC-SVG-20010904/DTD/svg10.dtd">
<svg version="1.0" xmlns="http://www.w3.org/2000/svg"
 width="512.000000pt" height="512.000000pt" viewBox="0 0 512.000000 512.000000"
 preserveAspectRatio="xMidYMid meet">

<g transform="translate(0.000000,512.000000) scale(0.100000,-0.100000)"
fill="#000000" stroke="none">
<path d="M1561 4505 c-161 -172 -286 -433 -324 -675 -9 -52 -18 -166 -21 -252
-4 -87 -15 -208 -26 -270 -11 -68 -99 -386 -220 -802 -110 -379 -197 -692
-193 -696 18 -17 278 -70 463 -95 164 -22 524 -30 695 -16 348 30 688 112 983
237 117 50 119 51 92 105 -13 24 -24 45 -25 47 -2 2 -36 -20 -77 -48 -252
-170 -508 -155 -750 44 -305 252 -515 798 -496 1292 5 136 -4 124 156 204 120
59 268 111 409 142 86 20 127 22 333 22 206 0 248 -2 337 -22 147 -32 291 -83
427 -152 66 -33 121 -58 124 -56 9 9 -33 210 -63 302 -122 371 -354 616 -659
694 -279 71 -598 -52 -796 -308 -30 -39 -57 -69 -61 -66 -4 2 -59 101 -124
219 -64 118 -118 215 -120 215 -1 0 -30 -29 -64 -65z"/>
<path d="M3640 1909 c-221 -199 -489 -383 -751 -516 l-114 -58 -1074 -5 -1074
-5 -24 -80 c-13 -44 -26 -116 -30 -160 -18 -247 149 -476 394 -540 83 -22
3063 -22 3163 -1 67 15 135 42 182 74 27 18 26 18 -170 31 -108 6 -217 15
-243 18 l-45 5 -110 201 c-60 110 -111 204 -112 209 -2 4 8 4 22 -2 45 -17
177 -48 266 -64 94 -16 300 -32 300 -23 0 5 -517 956 -524 963 0 1 -26 -20
-56 -47z"/>
</g>
</svg>
